<?xml version="1.0" encoding="UTF-8"?>
<svg data-bbox="0 0 58.461 56.52" xmlns="http://www.w3.org/2000/svg" viewBox="0 0 59 57" height="57" width="59" data-type="color">
    <g>
        <path fill="#3354FF" d="M51.599 49.346c-2.482-1.082-5.368-1.638-7.998-2.258-.019.184 0 .427-.089.486-.098.064-.142.608-.168.72 3.643 1.262 3.891.352 2.703 3.883 1.409.047 2.758.644 4.104 1.01-1.459-2.724-1.597-2.847 1.448-3.84m-6.792 1.388L43.65 54.24c-9.002-3.79-19.65-3.69-28.727-.101-.344-1.072-.86-2.576-1.182-3.64 4.885-1.875 10.456-2.548 15.517-3.261-1.543-.602-3.375-.616-4.941-.593 3.3-3.745 7.514-3.522 10.612.323-.123-.047-6.435-.023-4.89.236-.21.146-.241.063-.032.135-.169.009-.616.033-.749.08 5.265.523 10.63 1.109 15.651 3.013q-.053.152-.102.303m-32.601 1.564c-.142-.847-1.398-2.883-.045-3.33 1.066-.412 2.323-.774 3.4-1.078l-.396-1.071c-2.812.74-5.91 1.365-8.594 2.48 2.909 1.044 3.485.684 1.886 3.794a9.7 9.7 0 0 1 3.749-.795m9.514-18.81c-1.131-1.778-1.307-3.906-1.078-5.937-.028.007-.056.013-.083.027l-1.291.357c-.805.122-1.699.015-1.597 1.025-.004 1.253.096 3.416.13 4.643-.068 2.199.382 1.673 2.246 1.705.435-.481 1.012-1.384 1.673-1.82m15.195-.39-.128.215c.759.803 1.205 2.312 2.498 2.069l.85-.007c.801.05.398-1.95.445-2.48-.136-4.826 1.427-4.587-2.728-4.953.054 1.973.054 3.349-.937 5.155M55.137 49.71c-.305.736-2.792 1.287-3.618 1.732a79 79 0 0 1 1.762 3.545c.44.958-.645 1.862-1.503 1.294-1.66-1.17-4.223-2.218-5.961-3.376l-.875 2.81c-.342 1.043-1.552.248-2.185.013-8.832-3.41-19.318-3.145-28.001.701-1.699.631-1.76-2.186-2.27-3.248-2.04.852-3.969 1.93-5.865 3.093-.832.476-1.77-.43-1.318-1.28.202-.469 1.467-3.007 1.671-3.478-.79-.315-2.32-.828-3.1-1.125-1.024-.38-.792-1.814.196-2.056 1.254-.569 3.348-1.225 4.747-1.59 1.95-.527 3.646-.911 5.643-1.052 1.247-.076 1.614-.317 1.69 1.173.152.385.031.503.075.843 1.974-.491 4.767-1.025 6.775-1.025.365-2.597 2.798-4.466 5.377-4.57-.245-1.42-.11-3.364.057-4.865-2.271 0-4.53-.994-5.975-2.763-.474.913-.422 1.542-1.122 2.258-1.634 1.233-5.282.843-5.45-1.678.292-2.857-1.352-9.272 3.285-8.438.096-.043.81.107.921.1.188.054.464-.096.53.014l.086.04c.206-1.132.314-2.892.654-3.969.086-.009.094-.17.151-.229.071-.088.071-.088.102-.222.988 3.82-.426 8.94 3.256 11.68 2.973 2.1 8.42 1.644 10.297-1.767 1.342-2.006.739-6.871.952-9.152-4.458-.096-10.054-.179-14.377-.633.056-.04.362-.053.454-.06l-.123-.035c-.001-.006.021-.013.034-.02l.016-.047c-.31-.172 16.699-1.905 15.691-.101l.032 4.947c6.026-2.337 4.307 4.005 4.736 7.69-.1 3.842-6.434 3.3-6.562-.48-1.378 1.714-3.88 2.905-6.109 2.858.004.057.068.388.046.418.13.973.139 1.814.286 2.669l.002.007c.091.843.061.948-.038 1.745 1.856.207 3.805 1.348 4.712 2.986-.01.055.372.63.425.997.023.16.265.341.185.432-.07.078.114.325.114.498 2.26.078 4.88.529 7.076 1.133l-.04-1.598c-.005-.222-.068-.63.322-.647 1.582-.324 12.968 1.839 12.134 3.828M20.821 6.295l4.234 3.127-1.587 5.007c-.302.866.805 1.662 1.535 1.078 1.05-.809 3.192-2.423 4.26-3.214 1.451 1.04 2.93 2.047 4.362 3.08.573.443 1.508-.135 1.249-.917l-.185-.56h.002L33.168 9.3c.977-.75 3.015-2.213 3.933-2.945.223-.193.761-.35.727-.91-.031-1.002-1.604-.555-2.2-.626-1.468.029-2.728.043-4.194.148-.63-1.487-1.502-3.321-2.071-4.731.02.108.056.202.068.303h-.024c-.006-.013-.015-.033-.018-.033l.022.148-.153-.472c.355 1.797.66 3.807 1.16 5.553.2.696 1.075.452 1.683.506.828.04 1.525.115 2.325.1-3.438 2.664-3.637 1.284-2.207 5.702-3.452-2.47-2.466-2.463-5.894.014 1.402-4.178 1.445-3.112-1.989-5.648.794-.066 1.394-.082 2.31-.155.495-.098 1.245.168 1.448-.526.59-1.848.753-3.91 1.164-5.728-.91 1.436-1.675 3.14-2.395 4.637a105 105 0 0 0-4.82-.108c-1.185-.28-2.26.754-1.222 1.766M3.888 34.02l2.466-1.874c.52-.38.21-.38.748-.034.457.336 1.78 1.233 2.268 1.564.349.236.623.567 1.126.398.729-.228.579-1.047.333-1.59h-.003l-1.008-3.04c.548-.42 2.138-1.624 2.713-2.056.103-.109.674-.3.626-.863-.04-.575-.645-.692-1.118-.606-.848.004-2.835.035-3.662.148a116 116 0 0 1-1.582-3.262c.024.204.066.105.029.358l-.104-.317c.17 1.151.36 2.77.658 3.99.16.806 1.755.393 2.364.606-1.686 1.25-2.168.986-1.347 3.222-1.58-1.193-1.73-1.303-3.297.013l.393-1.213h.002c.391-.934-1.121-1.566-1.653-2.029.535-.005 1.066-.102 1.595-.108 1.2-.062.926-3.689 1.285-4.663-.717.786-1.336 2.103-1.865 3.066-.802-.032-2.696-.112-3.475-.094-.407-.024-.827-.086-1.17.377-.697.917.511 1.624 1.146 2.076.198.178 1.735 1.296 1.977 1.483L2.25 33.03c-.313.935.943 1.7 1.638.99m53.596-8.384c-1.369.04-2.483.086-3.86.25-.569-1.484-1.107-2.449-1.827-3.6.306 1.17.354 3.404.535 4.59.093.82 1.567.558 2.1.66-1.764 1.18-1.783 1.226-1.035 3.215-1.915-1.51-1.783-.935-3.535.303 1.018-2.868.604-2.13-1.573-3.78 3.97-.085 2.127-.035 3.423-4.637-.02.013-.048.121-.067.114.021-.197.046-.226-.008-.148l.16-.499c-.718 1.134-1.316 2.543-1.822 3.788-.965-.107-2.87-.12-3.867-.135a.846.846 0 0 0-.523 1.523c.588.449 2.357 1.749 2.975 2.21l-1.236 3.498a.995.995 0 0 0 1.55 1.12c1.024-.723 1.935-1.332 2.942-2.104.53.355 2.357 1.728 2.909 2.123.84.569 1.853-.242 1.552-1.145-.299-.851-.881-2.59-1.16-3.451.753-.55 2.17-1.588 2.947-2.136.753-.547.364-1.771-.58-1.76M37.666 13.129c-.768.974 1.075 1.75 1.6 2.257l1.753 1.288-1.316 3.74a.999.999 0 0 0 1.548 1.125c.836-.581 2.352-1.644 3.15-2.264 1.216.71 4.744 4.365 4.672 1.132l-1.24-3.693 3.155-2.291c.745-.539.377-1.76-.58-1.76-1.408.04-2.714.087-4.115.257-.45-1.293-1.274-2.814-1.91-3.849.32 1.204.408 3.599.615 4.833.104.86 1.798.549 2.353.667-2.048 1.399-2.002 1.282-1.158 3.612-2.227-1.725-1.88-1.143-3.95.29 1.119-3.215.753-2.285-1.704-4.172 4.279-.086 2.35.154 3.755-4.866-.02.02-.05.135-.07.129.02-.213.052-.234-.008-.156l.167-.518c-.77 1.228-1.315 2.613-1.899 4.023q-.002-.002-.003.007c-.797.045-4.454-.508-4.815.209M7.288 13.04a.987.987 0 0 0 .205 1.381l3.125 2.326-1.15 3.666a.987.987 0 0 0 1.525 1.112l3.147-2.4c.967.677 2.216 1.532 3.183 2.218a.818.818 0 0 0 1.311-.876l-.183-.56h-.003l-1.088-3.282c.215-.157 3.187-2.425 3.296-2.473.534-.433.15-1.302-.497-1.227-1.13.043-3.189.043-4.285.169-.452-.927-1.272-2.573-1.64-3.478l.03.236-.02.014c-.005-.007-.011-.02-.014-.02l.015.128-.11-.344c.207 1.379.408 2.875.736 4.239.167.798 1.677.393 2.134.553.193.078.318.047.5.047-1.975 1.497-2.416.995-1.497 3.612-1.878-1.393-1.849-1.48-3.704.02.929-2.493.595-2.173-1.367-3.626.664-.143 2.274.17 2.457-.613.452-1.431.42-2.934.74-4.414-.041.094-.04.094-.084.121-.058.055-.065.122-.12.101-.608.928-1.264 2.158-1.746 3.094-.854-.035-2.775-.123-3.602-.095-.357 0-.9-.166-1.294.37" clip-rule="evenodd" fill-rule="evenodd" data-color="1"/>
    </g>
</svg>
