<?xml version="1.0" encoding="UTF-8"?>
<svg data-bbox="4.049 9.083 59.902 49.833" xmlns="http://www.w3.org/2000/svg" viewBox="0 0 68 68" height="68" width="68" data-type="color">
    <g>
        <path fill="#3354FF" d="m62.095 48.46-.048-2.646-.013-2.306c-.027-.261-.014-.522-.02-.784l-.041-.746a3 3 0 0 0-.007-.476l-6.42.126h-.29l-.069 1.658c-.033.566-.163 2.2-.284 2.618l-.326 1.768-.135.654c.335.12.1.082.427.222.13.056.543.35.583.488q.002.032.013.056c1.326-.16 2.627-.457 3.96-.524l1.728-.08c.268-.039.28.018.366 0 .196-.04.38-.017.576-.029m-.04 1.629-2.753-.075-.454-.02c-.342.022-.301-.068-.447-.077l-1.417-.101c-.923-.104-.637-.092-1.512-.079-.184.003-.134-.17-.278.042-.055.082-.207.004-.36.075a.5.5 0 0 1-.155.052c.114.486.207 1.197.217 1.7l.054 1.502c.04.272-.022.236 0 .32l.109 3.58 2.29-.077 1.16-.017c.102-.002.203-.02.312-.02.43.003 1.476-.014 1.945-.07a1.18 1.18 0 0 0 1.038-1.154l.02-1.47c.007-.09.02-.18.02-.268l.034-.962.007-.811c.015-.593.08-1.509.17-2.07m-7.823-10.524c.115 0 .23-.012.345-.012l3.471-.012c.25-.002.502-.018.752-.022l2.726.001c.169.02.345.013.515.005l-.007-.157c-.027-.104-.014-.206-.02-.31l-.041-.293-.027-.766c0-.05-.02-.1-.02-.149 0-.48-.028-.525-.062-.969l-.047-.89c-.022-.156-.189-.592-.312-.726-.28-.305-.071-.083-.352-.293l-.576-.303c-.131-.101-.208-.1-.32-.147 0 .966.153 1.714-.61 2.478-.123.124-.355.251-.508.331-.353.185-.72.157-1.003.172-.06.002-.122.019-.176.019-.522 0-.742.045-1.186.062-1.145 0-1.996-.911-2.061-2.017l.027-1.197c-.228.068-.252.16-.65.19l-.618.054c-.105.037-.105-.022-.135-.003l-.63.053c-.84.073-1.474.026-2.258.13-.108.018-.056-.023-.237.01l-.97.048-.474.054c-.545.02-1.026.077-1.6.054l-.874-.067-.34-.006c-.205-.016-.8-.098-.928-.218a.5.5 0 0 0-.162-.1c0 .945.144 1.674-.61 2.432-.111.11-.369.259-.509.33-.364.186-.72.157-1.01.172-.054.002-.115.019-.176.019-.518 0-.744.045-1.186.062-1.14 0-1.99-.915-2.054-2.017l.033-1.27c-.15.068-.278.106-.413.2-.123.085-.604.273-.691.421-.04.068-.076.037-.088.065-.073.157-.387.357-.387 1.097l.014.96c.027.102.013.206.02.31l.04.294.028.766c0 .048.02.098.02.147-.011.466.061.75.061.994l2.807-.01c.25-.002.501-.018.752-.022l2.725.002c.312.036.624-.02.936-.006.135.006.278.002.413-.001.365-.01.48.15.563.115.19-.078.758-.093.969-.067.313.017 2.205-.075 2.4-.041l1.077-.041 1.282.12 1.85.099a1 1 0 0 1 .502-.134m-.502 8.186c0-.408-.101-.73-.115-1.182l-.075-.955a.8.8 0 0 1-.047-.262c0-.105 0-.214-.034-.304 0-.008-.007-.019-.007-.03.014-.23-.047-.418-.088-.625l-.02-.553c-.034-.225-.04-.456-.061-.684-.054-.55-.027-1.113-.048-1.667q-.008-.105-.006-.21l-1.187.096c-.588.022-.984-.026-1.559.08-.114.021-.046-.027-.23.01l-.929.046-.46.056-1.54.053-.664-.04-.027 1.994-.04 1.096-.082 3.198q.002.31-.007.62c.062-.007.1-.043.143-.007l1.233-.104c.55-.022 1.019.023 1.56-.079.107-.02.052.025.23-.01l.929-.048.46-.054c.394-.033 1.977-.079 2.373.013l.217.004c0-.433.081-.365.081-.452m-.244 2.867c.007-.146.02-.29.027-.436l-1.98.028c-.08.004-.162.02-.243.023l-.888-.003-1.078.043-1.281-.12-1.742-.097.047.67c.034.07.04.142.04.215 0 .234.038.21.035.266-.02.17.047.33.081.493l.007.422c.027.174.034.35.054.525l.014 1.914c-.007.11.013.222.013.333l.007 1.95 1.79-.014c.081-.003.162-.02.244-.022l.888.001 1.077-.041 1.75.155.921.041.081-3.485.027-1.594.014-.344c-.021-.313.064-.234.068-.359zm-8.683-2.159-.034-1.53c-.02-1.38.008-2.83-.048-4.205l-.04-.746a4 4 0 0 0 0-.476l-2.454.065-3.966.06q-.134.002-.257 0-.009.09-.007.18c-.007.043-.02.086-.02.13-.012.232.012.225-.034.462l-.007.389a3 3 0 0 1-.027.242q.002.129-.007.256c-.038.612-.158 2.133-.291 2.618-.11.396-.14.89-.237 1.327l-.19.975c-.103.43-.12.207-.014.646l.081.36c.433-.08.963-.115 1.444-.193.838-.135 2.353-.373 3.16-.44l1.32-.064.692-.027c.281-.038.27.017.366-.001.19-.04.38-.016.57-.028m-.034 1.63-2.76-.075-.447-.02c-.349.023-.3-.068-.447-.077-.15-.01-.298-.014-.44-.037-.089-.013-.19-.003-.279-.01l-1.376-.132c-.281-.053-.922.052-.962-.038-.033-.074-.638-.057-.719-.062.267 1.448.267 1.408.305 2.867l.02.603c.035.236-.019.247 0 .32l.082 2.287c.063.778.736 1.351 1.572 1.288.948-.072 1.898-.075 2.848-.09.101-.002.203-.02.305-.019.773.006 1.32-.041 2.06-.066l-.006-1.755.033-1.142c.016-.422-.015-.45.034-.961l.007-.811c.028-.692.06-1.385.17-2.07m-7.687-16.28c-.664.551-1.05 1.393-1.112 2.263-.041.576-.12 1.29-.095 1.85.006.123.044.306.027.444-.007.123.048.245.007.37l.034 2.738c.01.826.008 1.546.108 2.366.02.162-.007.375.028.554.034.206.102.395.088.623q-.002.02.007.031c.034.09.027.2.034.304.021.323.065.15.08.612l.11 1.266c.11.645-.012.524-.028.757-.007.125-.02.248 0 .373 0 0 .006.35-.06.4-.109.082.048.501-.008.758-.076.347-.087 1.294-.129 1.665-.017.102-.108.119-.074.358l-.04 2.1c-.177.026-.346.038-.455.01l-1.023.152c-1.674.285-2.902.382-4.624.382q.009-.016.007-.03c0-.203.17-.555.177-.616l-.041-.285-.04-.637c.03-.072-.018-.242-.075-.271 0-.011.013-.02-.007-.031-.034-.017-.095-.034-.075-.052l-.006-.004s-.131-.076-.122-.127c.008-.052-.095-.034-.095-.139-.274-.088-.28-.114-.57-.102-.6.055-.66.193-.82.234-.133.035-.224.196-.224.323-.034.02-.027.037-.027.056-.028.158-.058-.027-.027.361.024.301.118.28.102.428 0 .01.02.022.02.032l.027.168.068.144c0 .141.005.31.061.44l-.624-.081c-2.966-.354-5.74-1.182-8.33-2.675-1.07-.617-1.11-.654-2.082-1.377-2.01-1.498-3.804-3.506-5.097-5.659-1.722-2.866-2.704-5.97-2.881-9.288 0 .002.007.002.007.003l.17.058c.19.069.352-.052.379-.013.013.021.034.005.047.005l.59-.046c.308-.025.165-.012.271-.069.014-.005.027.012.034-.01.02-.035.034-.096.054-.077v-.005c.007-.035.02-.027.027-.029l.055-.07c.199-.09.018-.083.19-.117.042-.12.151-.409.101-.57-.011-.037-.03-.442-.176-.695-.045-.077-.11-.264-.203-.292 0 0-.007-.003-.007-.005l-.176-.052-.224-.066c-.123-.02-.414.048-.414.055-.096.043-.107.064-.21.062-.013 0-.02.017-.034.02l-.169.023c-.1.066-.16.054-.332.08q.012-.521.054-1.041c.278-2.958.834-4.78 2.129-7.408.693-1.407 1.633-2.68 2.637-3.876.656-.784 1.314-1.378 2.053-2.067.658-.612 2.09-1.637 2.847-2.07 1.159-.663 2.054-1.109 3.349-1.571 2.045-.691 3.612-1.032 5.823-1.152l-.129.43c-.072.191.051.359.014.39l-.007.141.047.516c-.014.063-.03.197.068.266.013.009-.017.032.014.046.034.018.095.036.074.054 0 .006.034-.004.034.029.156.095.017.08.15.164.058.037-.008.083.074.098.144.025.23.134.535.092.203-.027.49-.053.692-.181.102-.065.266-.072.346-.305l.006-.089.061-.23c.029-.194-.037-.271-.047-.422 0-.001-.068-.107-.068-.22 0-.01-.02-.022-.02-.033 0-.14-.045-.154-.02-.174l-.069-.147c0-.111-.007-.343-.06-.444l.955.051c.635.035 1.325.156 1.96.247.683.1 1.265.266 1.918.437.863.226 1.338.44 2.115.726.641.236 1.387.645 2.006.938l.597.358c1.581.87 3.447 2.427 4.595 3.677a29 29 0 0 1 2.407 3.027c1.435 2.12 2.643 4.848 3.166 7.367.145.701.218 1.365.338 2.043a1 1 0 0 1-.128.001c-.109-.013-.21.041-.319.006-.233-.037-2.147.063-2.501.042a1.2 1.2 0 0 0-.271-.01c-.223.022-.413-.027-.74.077l-.176.01c-.067.036-.135.097-.203.08q-.002-.002-.014.002c-.09.07-.099-.013-.183.07-.062.063-.346.01-.562.117l-.048-.838c.03-.055-.004-.168-.013-.296-.052-.73-.734-1.524-1.614-1.43-.325.035-.962.334-1.301.447-.48.16-.218.19-.217.232.002.052-.074.091-.007.139-.065.026-.132.04-.163.09.116.138.284.26.475.195 0 0 .202-.003.23.06.05.11.282-.047.434.008.096.035.587.074.536.194-.046.109.005-.024.054.173l-.02.505c-.017.347-.025 1.438-.068 1.688l-.068 1.104h-.006l-.028-.005c0 .005.007.01 0 .013v.005l-1.538.002v.002c0 .034-.048.002-.048-.014.007-.001 0-.003 0-.003v-.023l-.013-.861c.032-.302.01-1.115-.068-1.395l-.007-.24c-.04-.094-.102-.186-.081-.283.003-.027-.034.011-.034-.152 0-.094-.075-.138-.075-.302 0-.119-.043-.247.014-.285.138-.09 0-.2.136-.291.05-.034.016-.13.074-.142.052-.01-.018 0 .102-.137-.067-.074-.174-.275-.265-.352-.168-.097-.335-.09-.522-.053-.53.102-.688.394-.969.761-.189.246-.271 1.184-.285 1.475l-.4-.07-.542.032c-.06.011-.116-.086-.244-.007l-.224.072a3.3 3.3 0 0 0-.908.544m12.954-1.01c-.007.012-.007.026-.014.04l.034-.003zM36.268 56.906c-.25.037-.495.062-.644.026l-1.165.144c-1.904.266-3.082.314-5.017.278l-1.688-.115c-2.016-.297-3.904-.631-5.87-1.318-2.113-.738-4.237-1.81-6.074-3.118a27 27 0 0 1-2.542-2.126l-1.003-1.031a23.4 23.4 0 0 1-4.013-6.03c-.88-1.938-1.575-4.027-1.877-6.193-.277-1.979-.353-3.505-.19-5.487.192-2.336.745-4.773 1.66-6.94.257-.607.493-1.055.773-1.621 1.104-2.228 2.843-4.527 4.678-6.225 1.468-1.36 2.313-2.046 4.094-3.136 1.721-1.054 4.208-2.048 6.121-2.497 1.735-.407 3.033-.609 4.887-.663 1.943-.057 3.255.05 5.213.39 1.736.302 3.958 1.047 5.511 1.791l.929.47c.649.314.98.563 1.593.925 1.568.923 3.666 2.765 4.772 3.99 2.232 2.476 4.106 5.342 5.253 8.481.3.821.43 1.297.678 2.11.285.94.614 2.972.725 3.987l-.949-.04c-.514-.04-1.23-.135-1.708-.135l-.034-1.051c-.032-.485-.39-2.47-.38-2.593.038-.43-.658-2.267-.84-2.807-.647-1.914-1.508-3.477-2.644-5.12l-.562-.777c-.163-.318-.414-.598-.678-.884l-.915-.984a25 25 0 0 0-2.278-1.972 22.4 22.4 0 0 0-3.64-2.241c-2.217-1.085-4.9-1.857-7.3-2.056l-.604-.046c-6.873-.574-13.947 2.333-18.322 7.693-1.431 1.754-2.464 3.533-3.403 5.704q-.175.41-.34.838c-1.653 4.659-1.709 9.517-.223 14.202.596 1.877 1.568 3.85 2.691 5.51l.915 1.232c1.58 2.06 3.844 4.09 6.121 5.345.83.459 2.41 1.233 3.363 1.551.588.197 1.284.339 1.857.528l1.01.222c.663.15.71.1 1.308.193a22 22 0 0 0 3.471.253c.849-.013 3.735-.29 4.426-.558a44 44 0 0 1 1.668-.556c.609-.19.521-.266.97-.436l-.028 1.551c0 .506.06.871.244 1.342m16.872-23.9.204.01c-.014-.108-.02-.218-.034-.328 0 .045-.005.255-.04.211-.015-.015-.021-.078-.028-.12a1 1 0 0 1-.068-.131c-.034.084-.027.226-.034.357m10.805 9.25-.08 3.212-.09 3.731a.92.92 0 0 1-.196.568s.017.863.062.96c.026.07.033.14.04.214 0 .081-.007.163.027.24 0 .009.007.017.007.026-.02.17.04.33.075.493l.013.422c.075.538.094 1.874.068 2.439v1.29c-.056 1.26-.965 2.429-2.122 2.842-.704.25-1.368.187-2.101.187-.15 0-.305.017-.461-.005-.258-.035-.508.02-.766.007-.3-.016-.638.025-.922.027l-1.89-.021-1.431-.054a.96.96 0 0 1-.658-.286l-1.844.12c-.492.006-.724-.007-1.193.074-.113.02-.053-.024-.23.01l-.929.048c-.149.01-.291.034-.44.052l-1.309.065-1.084-.076-.326-.006a4 4 0 0 1-.23-.031c-.005 0-.142.046-.346.054l-2.745.018c-.258-.036-.508.02-.766.006-.307-.016-.632.025-.929.028-.707.006-1.956.035-2.643-.11-.803-.169-1.65-.76-2.034-1.487-.02-.039-.047-.077-.068-.114-.273.106-.455.126-.745.286a3 3 0 0 1-.685.248c-.671.18-1.322.35-1.925.534-.994.31-4.45.465-5.647.389a27 27 0 0 1-3.341-.417c-.487-.092-1.042-.16-1.471-.286a16 16 0 0 0-1.03-.27l-2.19-.717c-.563-.205-1.15-.531-1.695-.79-4.903-2.327-8.871-6.596-11.212-11.463-2.375-4.94-3.024-10.836-1.83-16.16.29-1.294.636-2.43 1.112-3.658.359-.927.723-1.612 1.152-2.486.832-1.695 2.53-4.14 3.857-5.504.203-.218.414-.438.624-.653 1.84-1.822 3.833-3.284 6.155-4.457 2.121-1.072 4.09-1.74 6.412-2.235.668-.143 1.95-.326 2.63-.375 1.8-.127 2.744-.142 4.508 0a24.2 24.2 0 0 1 9.158 2.6c2.002 1.025 3.505 2.079 5.213 3.552L46.7 16.51l1.457 1.61c.236.303.331.53.53.782.503.64 1.295 1.87 1.7 2.583a21.7 21.7 0 0 1 1.743 3.858c.17.513.975 2.706.949 3.193-.019.35.661 3.314.447 4.494l.597.02c.099-.029.103.067.142.073l.529.082c.034-.347.081-1.144.285-1.44.294-.427.576-.745 1.132-.784.465-.032.477.284.63.428-.126.116-.041.119-.102.138-.075.023-.022.101-.081.141-.078.053-.068.12-.068.223-.165.124-.064.165-.088.278l.04.255c.079.107.01.204.069.26q.007.008.006.014c-.02.098.048.19.082.283l.006.241c.1.355.06.709.082 1.02q.009.188-.014.375c-.007.063.014.128.014.19 0 .106-.02.662.013.716l.034-.005v-.002l.908.007.638-.01-.007-.017.027.006v-.001h.007l.074-1.104.048-1.484.034-.709c-.057-.23-.084-.013-.048-.173.028-.125-.441-.156-.542-.193-.153-.056-.385.1-.434-.008-.028-.063-.224-.06-.224-.06-.144.07-.421-.068-.474-.196.023-.05.088-.063.156-.09-.067-.046.005-.082.006-.139.002-.052-.258-.067.217-.232.333-.115.987-.413 1.302-.447.857-.091 1.498.607 1.613 1.43l.014.332.047.825c.14 0 .209-.087.414-.089l.454-.024c.096-.057.214.018.312-.014q.001-.005.013 0c.109.046.224.012.346.02l.61.229c.344.14.774.577.963.897.04.068.095.127.135.194.46.77.422 1.31.468 2.113v1.075c-.04.124.014.246.007.368-.017.14.021.321.027.445.03.654-.063 1.079-.081 1.655-.004.099.048.172.054.414l.027.715zm-20.973-6.75s0-.003.007 0v.008c-.007-.002-.007-.006-.013-.01 0-.003.006.004.006.001M31.645 33.28c-.04-.296-.259-.737-.433-.996-.18-.267-.608-.653-.909-.814a2 2 0 0 0-.549-.21l.129-.227c.099-.329.149-.656.176-.997l.007-.385.075-1.298-.068-1.574c-.027-.39-.061-.507-.061-.937 0-.048-.02-.098-.02-.146l-.028-.828c-.078-.33-.079-1.832-.108-2.344l-.075-.972c-.025-.045.043-.013 0-.153-.026-.086-.004-.81-.129-1.148-.194-.532-.293-.701-.501-1.193-.167-.394-.19-.18-.237-.18-.01 0-.136-.053-.136-.005-.033-.055-.039-.11-.095-.133-.332.182-.105.533-.25.586-.115.041.05.21-.014.361l-.102.526c0 .033.014.07 0 .104-.037.094-.007.168-.047.2-.097.073-.034.107-.048.201l-.075 1.918-.074.936c-.007.105-.007.208-.014.313-.053.667-.103.87-.04 1.547.007.074.013.147.007.22-.014.123.04.244.006.367v1.065c0 .098.02.195.02.293l.035 2.428.054.31c.007.047-.014.094.013.14.034.079.095.155.075.236-.003.023.034-.012.034.127 0 .123.058.029.067.235l.068.444c-.266 0-.887.35-1.118.55a2.89 2.89 0 0 0-.861 2.973c.072.24.17.377.319.561l-.495.326c-.101-.03-.096.047-.143.085-.02.017-.047.028-.068.045l-1.423 1.28-1.01.846-.447.492c-.082.06-.109.167-.204.212-.09.043-1.38 1.456-1.606 1.662-.174.14-.525.507-.61.707l-.109.123c-.02.068-.02.155-.074.188q-.009.004-.007.01c.006.087-.075.068-.075.172 0 .09-.18.19-.27.424-.068.172-.214.202-.19.296.05.2-.078.202-.028.31.041.089-.023.078 0 .111.034.06.027.088.027.128.162.024.322.183.529.185l.563-.088c.357-.14.188.07.745-.323.32-.226.426-.377.482-.405l.786-.683.847-.94c.14-.237.779-.874.976-1.122l.136-.194c.054-.064.122-.113.156-.192l1.003-1.062.495-.608c.005-.036.05.014.088-.085.022-.058.474-.501.563-.745l.183-.537v.003c.19.107.288.191.508.218.238.029.386.14.475.08.218-.154.284-.045.339-.15.047-.093.087-.03.101-.071.02-.067.055-.079.082-.107-.085-.102-.107-.359-.204-.524-.075-.129-.291-.448-.291-.58l-.217-.574c-.025-.015.022-.005 0-.102-.029-.127.046-.415.095-.526l.19-.273c.025-.082.277-.239.515-.223.077.005.092-.028.136.01.01.003.366-.078.643.453.217.414.117.533.15.65.005.018-.04.017-.028.07.024.095-.189.422-.23.557-.192.626-.574.78-.678.906-.06.071.076.053.034.17 0 0-.037.044.007.063q-.002.005.007.013l-.13.096c.036.08.228.258.428.154 0 0 .188-.04.224.01.07.097.249-.125.38-.134.387-.027.79-.444.853-.442.132.004.123-.087.19-.158.34-.361.596-1.06.596-1.568 0-.441-.002-.364-.088-.74m26.729 2.227v.007q-.002-.004-.014-.01c0-.003.007.004.007.001 0 .002 0-.002.007.002" clip-rule="evenodd" fill-rule="evenodd" data-color="1"/>
    </g>
</svg>
