<?xml version="1.0" encoding="UTF-8"?>
<svg data-bbox="4.167 3.683 37.665 38.634" xmlns="http://www.w3.org/2000/svg" viewBox="0 0 46 46" height="46" width="46" data-type="color">
    <g>
        <path fill="#3354FF" d="M29.512 24.813c-.006.06.018.191.062.149.003-.006.005 0 .007 0 .017.023.033.013.027.049-.012.07.062-.013.08.03l.093.104c.006 0 .017-.005.022.005.014.033.035.015.032.044-.005.065.012.037.032.045l.017.02q.038.014.074.034l.269.183c.048.01.271.293.312.341l.08.064c.025.018.067.02.082.05.013.025.057.02.06.054l.153.169.12.128.13.173.109.168c.019.01.03.025.053.03l.026.04c.028.005.071.005.067.024 0 0 .002.005.004 0 .044 0 .006.03.062.03.045 0 .033.066.118.104.059.026.025.082.08.08.135-.007.07.037.146.024.054-.01.03.011.055.01.043-.005.054 0 .076 0l.22-.124c.031-.031.026.006.128-.129.122-.16.083-.193.138-.257.062-.071.018-.277-.009-.36-.011-.04-.032-.07-.05-.105q-.003-.001-.002-.01c.007-.041-.141-.333-.174-.375l-.186-.228c-.204-.206-.231-.18-.386-.336-.011-.01-.03-.01-.041-.02l-.135-.109c-.064-.027-.038-.04-.07-.054a.3.3 0 0 1-.068-.025l-.097-.054-.332-.223-.42-.153c-.021.003.007-.028-.042-.02-.033.005-.232-.094-.35-.054-.18.06-.262.118-.422.212-.132.078-.06.088-.096.178l-.01.045zm11.124 13.77a.2.2 0 0 0-.03.034c-.002 0-.003.005-.005.005zm-.023.38c.007.005.014.015 0 0m-.809.831h-.002l-.01-.01.009.01zm-.359-.014.004-.005-.002.005s-.01.005-.002 0m-2.015-4.407-.01.01q.005.001.008-.005.002.001.002-.005m-.02.02-.023.02c.01-.006.018-.006.023-.02m-.049.044-.026.02q.014.001.026-.02m-3.33-2.547-.259.267c-.32.317-.915.783-1.269.974-.707.382-1.054.57-1.91.792a7.23 7.23 0 0 1-4.13-.129 7.2 7.2 0 0 1-2.473-1.43c-.416-.345-.74-.736-1.071-1.171-.566-.746-1.179-2.062-1.327-3.013-.053-.34-.172-.672-.162-1.028q0-.023-.004-.045c-.046-.288.003-.462-.025-.742-.026-.255.1-.983.162-1.231.172-.68.277-1.14.61-1.746l.235-.455c.168-.49.447-.732.51-.925.044-.131.195-.267.203-.302.02-.084.095-.178.165-.277-.133.094-.133.094-.277.149-.11.053-.245.163-.327.168-.04.002-.339.277-.386.321l-.457.524a6.5 6.5 0 0 0-.994 1.732c-.23.579-.308.696-.433 1.365h-.007l-.347-.035c-.193 0-.327-.04-.512-.07-.166-.025-.164-.052-.353-.039-.036.003-.08.03-.116.02-.033-.01-.065.025-.097.005l-.165-.005-.196.015-.402.014-.243.01c-.022.015-.044.015-.066.035l-.053.005-.065.054c-.01.025-.02.02-.031.02-.034 0-.01.038-.063.045-.108.013-.146.078-.176.069-.078-.023-.077.108-.122.119-.027.006-.018.079-.039.079l-.032.084.046.227c.008.08.139.28.186.322.091.082.062.088.09.109.178.136.358.11.367.119l.266.039.32-.01c.173-.022.301-.064.425-.064.012 0 .025-.015.039-.015l.146-.01c.018-.01.037-.015.055-.005l.077-.025c.151-.033.28-.02.436-.03l.193-.034c.035-.004.172-.01.192-.035h.009c.015.027.041-.01.111-.01-.055 1.236.14 2.488.648 3.621l.142.341a8.5 8.5 0 0 0 2.286 2.943l.398.307c-.351.236-.585.373-.956.653-.111.083-.738.502-.835.529-.17.048-.76.514-.946.648l-.938.628-1.381-.999c-.146-.104-.302-.198-.441-.307-.169-.13-.741-.518-.832-.613a3.2 3.2 0 0 0-.563-.425l-.696-.49-3.226-2.255c-1.112-.775-2.158-1.421-2.954-2.547-.499-.707-.714-1.167-.967-1.93-.116-.35-.185-.762-.243-1.127-.095-.593-.053-1.888-.049-2.508.022-2.836.07-5.661.052-8.497l-.019-2.043.859-.044 1.172-.119.79-.123c1.486-.28 2.933-.703 4.312-1.331.67-.305 1.265-.596 1.904-.964l.577-.347.565-.366 1.126-.816q.838.645 1.737 1.202c.682.413 1.534.884 2.228 1.187.98.43 1.988.811 3.032 1.059.494.114 1.88.388 2.371.43.208.015.415.02.623.03l.696.044.816.015.013 1.217c-.001.773.069 1.537.058 2.27-.004.25-.009 1.02.027 1.251.055.356.08.732.089 1.128.003.153.012.297.042.41.044.164.028.232.038.391l-.44-.153c-1.804-.555-3.518-.52-5.276.232A8.2 8.2 0 0 0 24 21.578c.058-.057-.006-.053-.006-.084-.001-.04.026-.06.007-.084q-.003-.001-.005-.01c.107-.048.058-.077.013-.138-.071-.098-.214-.006-.239-.084-.023-.07-.121.032-.181-.005-.102-.063-.361-.07-.395-.084-.026-.012-.033-.067-.085-.05-.044.015-.053-.005-.082-.005l-.944-.044-.587-.055c-.288-.033-.377-.05-.662-.04-.072.004-.149.031-.22.02-.06-.01-.12.025-.182.006l-.531-.005c-.05.005-.098.014-.147.014l-.755.015-.455.01c-.042.015-.084.02-.126.035l-.1.005-.122.054c-.033.044-.065-.005-.108.045l-.18.034c-.094-.005-.143.067-.219.055-.154-.025-.111.084-.228.118-.053.016-.037.08-.073.08-.03 0 .003.007-.06.083l.086.233c.017.082.194.202.234.237.12.107.18.085.245.159.049.055.254.105.315.108.138.008.1.035.397.035l.141.02.375.025.602-.01q.159-.009.318-.025c.174-.008.203-.04.48-.04.024 0 .048-.014.072-.014l.276-.01a.2.2 0 0 1 .103-.005l.146-.025c.295-.034.517-.02.819-.03l.363-.034c.121-.014.243-.001.36-.035.025-.007.017.024.076.005l.144-.015c.317-.032.38-.013.697-.207l.396-.233c-.157.14-.377.348-.5.51-.125.165.106-.045.16-.045-.033.143-.088.137.044.08-.07.066-.271.288-.306.365.1-.037.23-.142.33-.203.302-.186.538-.377.825-.593.094-.071.492-.313.586-.317.096-.004.517-.26.692-.34.4-.186.904-.317 1.338-.392.313-.053.98-.15 1.257-.148.142 0 .575-.002.689.03.177.05.281.052.463.064.492.031 1.34.262 1.766.42a7.5 7.5 0 0 1 1.502.772 7.6 7.6 0 0 1 2.344 2.557c.467.852.753 1.818.84 2.785.133 1.485-.148 2.752-.81 4.08a8.3 8.3 0 0 1-1.163 1.662m-6.647 3.531c-.355.238-.71.47-1.052.727-.163.124-1.031.706-1.157.752-.188.07-1.11.756-1.317.905-.275.198-.558.401-.834.579-.965.617-2 1.315-2.954 1.964a5 5 0 0 1-.264-.188c-.267-.2-.99-.684-1.169-.846-.367-.331-.786-.566-1.188-.856l-2.758-1.924-3.555-2.483-1.012-.712c-.648-.447-.986-.705-1.541-1.217-.28-.258-.818-.837-1.061-1.162-.382-.51-.574-.79-.89-1.355a10 10 0 0 1-.993-2.69c-.233-1.168-.231-1.858-.225-3.033.02-3.946.072-7.9.051-11.845l-.02-2.716c.588-.005 1.174-.015 1.764 0q.392.006.792.005a16.5 16.5 0 0 0 6.2-1.192l1.267-.588c1.848-.968 2.938-1.948 4.603-3.324 1.336 1.1 2.607 2.23 4.145 3.057.932.5 1.977.978 2.978 1.28 1.461.443 2.923.704 4.442.718l1.822-.025 1.361-.005q.011.318.005.643 0 .045.003.09c.023.266.018.548.02.825 0 .45.036.749.041 1.167l.017 2.167c-.001 1.077.068 2.118.057 3.165-.004.377-.011 1.389.028 1.746.055.495.08 1.019.088 1.568.003.213.011.42.042.574q.024.117.031.257c-.097-.139-.601-.628-.748-.757a9.5 9.5 0 0 0-1.036-.786l-.507-.287c-.243-.163-.547-.278-.82-.396.03-.158.06-.316.113-.4l.1-.683c.031-.307.055-.628.08-.945l.137-2.008c.02-.45.037-.9.081-1.335.052-.505.068-1.362.083-1.885a.57.57 0 0 0-.541-.583c-.542-.013-.88-.045-1.389-.08-.76-.05-1.883-.252-2.615-.415-.337-.074-1.124-.274-1.435-.386l-.885-.311-1.247-.524-.805-.401a19 19 0 0 1-2.169-1.34l-1.035-.787c-.217-.205-.618-.219-.885 0a18.3 18.3 0 0 1-2.958 1.993c-1 .542-2.344 1.13-3.422 1.435-.828.257-1.674.465-2.534.588a16 16 0 0 1-2.076.183q-.275.009-.548.025c-.358.01-.611.274-.606.603.014 1.009-.007 2.053.014 3.052.008.361.015.717.004 1.078-.003.114 0 .233.003.347.008.385.019.771.023 1.162.005.53-.002 1.058.017 1.583.002.084 0 .173 0 .257l.008 4.412c.002.458-.008.966.032 1.449.142 1.68.76 3.222 1.858 4.49.655.758 1.189 1.175 1.99 1.712.343.228.675.48 1.026.693a1 1 0 0 1 .129.089c.164.133.34.242.518.356l1.231.84 1.837 1.242 1.872 1.232 1.864 1.167c.102.061.214.083.318 0q.233-.184.465-.361l2.684-2.092c.236-.183.473-.361.697-.55l.244.154c.895.554 2.065.966 3.094 1.123a.1.1 0 0 0-.028.02m14.332 2.825c-.078.155-.232.3-.34.41-.04.04-.072.089-.112.129-.323.322-.449.479-.743.8-.173.19-.315.337-.586.421-.41.128-.792.001-1.098-.282l-.205-.202-.726-.718-.795-.855-.315-.322c-.184-.2-.707-.786-.782-.984-.052-.138-.223-.344-.336-.598-.042-.096-.16-.223-.109-.47.016-.077.09-.196.117-.198.073-.006.108-.055.17-.055.076 0 .075.005.123 0-.016.1.035.072.02.114-.014.043.053.046.06.08.02.076.112.009.114.01l.147.143c.087.099.27.183.402.316.034.035.263.257.319.272.082.024.15.14.21.149q.007.001.011.01c.06.074.15.109.23.158l.171.158c.08.06.15.124.229.183l.758.742c.04.05.091.084.135.129l.83.82.593-.583c.09-.07.154-.153.227-.237l-1.389-1.514-.674-.702-1.05-1.098-.357.277c-.123.07-.219.306-.301.292-.048-.009-.183.125-.185.128a.54.54 0 0 1-.415.238c-.004-.046.04-.104.068-.154-.033 0-.033.035-.043-.024-.019-.103-.133.033-.1-.06.048-.133.133-.25.206-.37l-.073.034c-.084-.084-.107-.01-.142-.054l-.06-.035-.055.005c-.015-.026-.02-.005-.035-.005-.006-.038-.05.02-.1-.02l-.07-.025-.152-.138c-.006-.01-.02-.01-.029-.02l-.218-.208c-.032-.027-.084-.045-.19-.163-.011-.015-.03-.02-.032-.04l-.098-.083-.123-.1-.257-.4-.177-.222a8 8 0 0 1-2.056 1.36c-2.365 1.107-4.272.76-4.357.786l-4.72 3.561-2.969 2.211c-.226.165-.407.014-.583-.099L17.1 40.408c-1.27-.873-2.571-1.737-3.831-2.616-.404-.282-.768-.5-1.163-.802a4 4 0 0 0-.18-.123c-.483-.302-.95-.648-1.425-.965-.386-.258-1.508-1.013-1.89-1.325a15 15 0 0 1-.958-.831 11.1 11.1 0 0 1-2.888-4.64c-.537-1.71-.531-2.914-.533-4.555l-.006-4.847q.002-.18-.001-.351c-.019-.737-.012-1.474-.017-2.216-.003-.54-.015-1.078-.023-1.617-.002-.163-.006-.327-.002-.485.01-.5.003-1-.005-1.504-.009-.583-.006-1.177-.007-1.77l-.004-2.112c0-.331.268-.604.603-.604l2.664-.015c.988-.001 1.834-.004 2.814-.173a16 16 0 0 0 1.651-.35 15.3 15.3 0 0 0 5.768-3.038l1.963-1.627a.69.69 0 0 1 .875-.005c.02.022 2.312 1.914 2.78 2.25l.835.574c1.172.766 2.686 1.438 4.077 1.815.62.169 1.34.308 1.979.396.741.103 1.099.118 1.87.129q.64.006 1.283.005l2.05.02a.62.62 0 0 1 .611.623c-.017 1.724-.038 3.43-.092 5.154q-.008.282-.029.558c-.044.604-.06 1.232-.08 1.86l-.137 2.8c-.026.44-.05.885-.082 1.32l-.099.945a2 2 0 0 0-.094.425c.305.386.411.53.663.94 1.124 1.832 1.44 4.078.976 6.168-.116.52-.2.825-.406 1.335-.348.867-.438.974-.93 1.736-.135.209-.398.516-.566.712.048 0 .009.027.028.025l.21.139c.144.092.124.106.254.217q.01.006.02.02l.069.04.063.03c.007.033.018.004.08.063l.152.12c.087.059.08.03.227.143.079.06.203.166.256.252l.011.03c.015.02.058.051.057.089.03 0 .119.158.13.237.058-.092.154-.252.24-.321.332-.266.74-.253 1.045.024l.576.53c.117.08.084.102.125.123l.618.574.624.574 1.107 1.093.521.46c.129.166.218.256.279.504a.96.96 0 0 1-.09.678m-7.324-8.29c-.123.246-.28.461-.428.697-.282.45-1.017 1.168-1.445 1.48-1.135.827-2.62 1.317-4.04 1.25-1.864-.086-3.47-.876-4.666-2.314a8 8 0 0 1-.755-1.163l-.183-.43c-.543-1.194-.638-2.68-.256-3.937.052-.169.162-.387.235-.559.246-.575.52-1.009.952-1.464.08-.084.41-.4.487-.4.072 0 .148-.05.228-.09.074-.032.08.01.26-.103-.047.079-.1.143-.106.213-.003.042-.11.105-.136.232-.03.143-.244.316-.34.688l-.269.544c-.167.292-.476 1.605-.422 1.924.025.148.007.267.01.395l.025.168c-.008.198.052.381.098.564l.097.475c.145.463.28.775.51 1.217a5.14 5.14 0 0 0 4.065 2.695c.85.064 1.872-.105 2.64-.48l.463-.242c.264-.128.477-.331.702-.514.275-.214.497-.496.705-.772 1.204-1.593 1.458-3.71.56-5.505-.216-.432-.602-.971-.933-1.286-.579-.55-1.091-.93-1.862-1.221-.254-.096-.948-.288-1.258-.302-.345-.016-.282-.064-.415-.07-.344-.012-.328-.02-.661.006a6.5 6.5 0 0 0-.966.143 2.6 2.6 0 0 0-1.004.4c-.144.092-.107.002-.246.08-.332.185-.355.216-.675.455-.075.056-.412.258-.498.277.019-.058.163-.223.212-.277-.11.065-.052-.02-.052-.02l.002-.054c-.044-.005-.214.15-.128.02.116-.175.256-.301.407-.44a5.9 5.9 0 0 1 1.508-1.015c1.395-.647 2.784-.63 4.218-.123l.648.272.228.138c.107.045.205.11.304.169.477.301.963.722 1.332 1.142.307.349.418.5.676.905.58.913.888 2.11.893 3.19.003.726-.068.97-.19 1.573-.088.444-.324 1.058-.531 1.469M15.077 14.98l-.02-.094c-.087-.025-.2-.145-.312-.163-.232-.036-.334.01-.444 0-.108-.01-.32.117-.41.183l-.116.1-.149.108c-.013.01-.032.015-.045.025-.21.16-.194.156-.381.341l-.266.277q-.003.009-.006.01l-.248.277c-.014.015-.02.034-.034.05l-.155.158c-.043.072-.047.027-.076.079q-.003.001-.007.01c-.07-.058-.135-.13-.215-.169-.022-.01.015-.023-.042-.044-.037-.014-.246-.233-.382-.262-.159-.034-.222-.063-.415-.08-.102-.008-.261-.064-.297-.01-.018.028.028.018-.044.065-.062.04-.002.049-.066.035-.083-.018-.112.197-.024.212.005.001.046.046.025.08-.037.062.088.042.097.103.018.114.176.27.163.302-.026.067.02.054.037.08l.64.746c.158.29.554.493.903.237l.477-.35.166-.174c.02-.02.038-.044.063-.06.041-.024.053-.083.104-.098l.313-.287c.027-.025.049-.06.076-.089l.435-.41.261-.253.069-.109c.012-.014.032-.02.037-.04.007-.039.003-.088.035-.103l.001-.005c-.004-.051.043-.032.033-.089-.008-.046.1-.103.134-.218.025-.086.108-.089.092-.148-.037-.137.036-.105-.001-.178-.013-.025-.012-.035-.006-.045m2.322.93c.01.032.06.058.08.134.023.093.515.295.61.321.075.02.151.035.224.08.124.08.735.13.932.143h.335l.4.025.728.024 1.369-.04c.15-.014.301-.029.452-.034q.181-.006.362-.005c.042 0 .084-.014.127-.014l.48-.01c.168-.026.134.007.24-.01l.614-.04 1.422-.025.453-.03.393-.024c.042-.008.029.024.132.005l.723-.04c.502-.064.849-.23 1.312-.376.343-.108.158-.116.157-.148-.002-.035.047-.073.012-.084q-.003-.001-.008-.01c.035-.009.095-.024.116-.06a.4.4 0 0 0-.19-.123c-.143-.017-.13.004-.18 0-.226-.017-.101-.08-.189-.064-.25.046-.244.015-.493-.025l-.462-.04c-.051-.014-.056-.066-.148-.049l-.804-.02c-.417-.026-.793-.011-1.192-.04-.07-.004-.141 0-.212-.01l-1.336-.078q-.042-.001-.085.005c-.111 0-.223-.005-.335 0-.125.002-.26.03-.383.02-.106-.01-.21.024-.318.004-.139-.029-1.364.015-1.618.015l-.879.01-.794.01-.27.034c-.04.005-.08-.005-.12.005-.069.025-.135.065-.206.05-.02-.002.01.025-.11.025-.106 0-.033.038-.204.044l-.42.05c-.167.046-.308-.01-.368.05-.112.11-.219.062-.258.128-.038.064-.077.025-.088.05-.018.044-.046.054-.075.073.038.03.038.03.072.094m-2.322 4.719-.02-.094c-.09-.027-.2-.146-.312-.163-.24-.038-.344.013-.444 0-.102-.014-.324.119-.41.183l-.116.099-.149.108c-.013.01-.032.015-.045.025-.21.161-.194.156-.381.341l-.266.277q-.003.009-.006.01c-.07.09-.157.207-.248.282-.014.01-.02.03-.034.045l-.155.158c-.041.07-.055.041-.076.079q-.003.001-.007.01l-.215-.168c-.022-.002.017-.022-.042-.045-.037-.014-.246-.233-.382-.262-.159-.034-.222-.062-.415-.079-.102-.009-.261-.065-.297-.01 0 0-.002.053-.044.07-.054.02-.007.046-.066.034s-.054.02-.074.094a.093.093 0 0 0 .058.119c.084.158-.103.033.076.138.056.033.044.104.139.238 0 0 .073.081.062.103-.03.056.02.061.037.08.008.01.011.024.02.034l.255.287.365.425c.164.3.57.49.902.238.228-.173.4-.257.59-.455l.116-.129c.042-.025.054-.084.105-.099l.313-.287c.027-.024.049-.059.076-.089l.435-.41.26-.252.07-.11c.011-.014.032-.02.037-.039.007-.04.002-.089.035-.104l.001-.005c-.004-.051.042-.032.033-.089-.008-.048.098-.094.134-.217.024-.083.107-.09.091-.149-.036-.135.035-.103 0-.173-.013-.03-.012-.04-.006-.05m.005 5.698c-.012-.03-.01-.04-.005-.05l-.02-.094-.207-.123c-.049-.044-.25-.048-.3-.055-.085-.011-.18.034-.249.02-.111-.022-.257.088-.276.094-.062.019-.238.178-.24.178-.07.026-.106.07-.16.114-.012.01-.031.014-.045.024-.257.2-.428.38-.646.624q-.003-.001-.006.005c-.076.13-.41.44-.437.484-.042.07-.055.042-.076.08q-.003.001-.007.01l-.215-.169c-.023-.001.017-.022-.042-.044l-.225-.178c-.182-.141-.5-.15-.724-.188-.192-.033-.132.038-.157.06l-.05.029c-.012.01-.012.02-.012.02q0 .009-.004.01c-.09 0-.073-.03-.106.093a.093.093 0 0 0 .058.12c.024.044.032.048.017.073-.038.063.087.043.097.104.013.084.115.209.163.282.009.014-.029.073.014.084l.244.272.419.49c.174.32.587.477.902.237l.316-.222c.233-.161.352-.338.39-.361.042-.025.054-.084.104-.1l.185-.162.205-.213.393-.366c.164-.16.24-.178.354-.39l.054-.055c.008-.04.003-.09.036-.104l.001-.005c-.005-.051.042-.032.033-.089-.008-.048.098-.094.134-.218.024-.082.107-.088.091-.148-.036-.133.037-.112 0-.173" clip-rule="evenodd" fill-rule="evenodd" data-color="1"/>
    </g>
</svg>
